<?xml version="1.0" standalone="no"?><!DOCTYPE svg PUBLIC "-//W3C//DTD SVG 1.1//EN" "http://www.w3.org/Graphics/SVG/1.1/DTD/svg11.dtd"><svg t="1545573934808" class="icon" style="" viewBox="0 0 1024 1024" version="1.1" xmlns="http://www.w3.org/2000/svg" p-id="11127" xmlns:xlink="http://www.w3.org/1999/xlink" width="200" height="200"><defs><style type="text/css"></style></defs><path d="M966.599111 426.666667c-0.910222-21.390222-2.844444-43.292444-5.12-65.649778-15.872-155.022222-139.548444-282.168889-293.888-301.397333A339.000889 339.000889 0 0 0 304.241778 284.444444a216.860444 216.860444 0 0 0-19.342222-0.967111c-124.871111 0-228.124444 101.888-228.124445 226.986667v56.661333c0 31.004444 27.022222 56.206222 57.912889 56.206223h1.137778c30.890667 0 54.499556-26.567111 54.499555-57.514667V521.102222c-6.542222-67.527111 48.469333-124.359111 114.574223-124.359111 3.299556 0 6.542222 0.284444 9.784888 0.568889l43.804445-0.568889c25.713778 2.161778 49.436444-9.045333 57.969778-33.393778l12.288-35.100444c29.809778-85.276444 105.073778-149.219556 194.901333-157.184 139.093333-12.344889 259.242667 104.903111 249.969778 243.655111l-0.170667 11.889778v145.749333h0.568889c1.649778 29.639111 27.648 53.304889 57.628444 53.304889h1.137778c29.525333 0 52.053333-24.234667 54.101334-53.304889h0.398222V426.609778h-0.625778z" fill="#2d2f33" p-id="11128"></path><path d="M641.820444 700.074667l-73.216 74.922666V568.32A56.149333 56.149333 0 0 0 512.568889 512h-1.137778a56.149333 56.149333 0 0 0-56.035555 56.32v198.030222l-7.338667-1.194666-63.601778-63.374223c-20.081778-19.968-52.224-24.860444-75.207111-8.305777a56.32 56.32 0 0 0-7.224889 85.959111l171.918222 171.121777a56.888889 56.888889 0 0 0 80.213334 0l167.936-170.666666c22.129778-22.016 22.129778-57.742222 0-79.815111a56.888889 56.888889 0 0 0-80.213334 0z" fill="#2d2f33" p-id="11129"></path></svg>